<svg version="1.1" id="Layer_1" xmlns="http://www.w3.org/2000/svg" xmlns:xlink="http://www.w3.org/1999/xlink" x="0px" y="0px"
	 width="100%" viewBox="0 0 500 130" enable-background="new 0 0 500 130" xml:space="preserve">
<path fill="#FDFEFD" opacity="1.000000" stroke="none" 
	d="
M363.000000,131.000000 
	C242.000061,131.000000 121.500114,131.000000 1.000129,131.000000 
	C1.000086,87.666748 1.000086,44.333488 1.000043,1.000176 
	C167.666519,1.000117 334.333038,1.000117 500.999634,1.000059 
	C500.999756,44.333157 500.999756,87.666313 500.999878,130.999725 
	C455.166656,131.000000 409.333344,131.000000 363.000000,131.000000 
M324.299255,67.941139 
	C328.723694,71.408295 332.595337,67.165169 337.076080,67.866150 
	C335.379639,61.631626 332.013733,57.257084 326.704163,56.492634 
	C319.943665,55.519279 312.814667,55.413399 306.077911,56.450207 
	C299.547485,57.455273 295.843445,63.201992 295.740631,69.391037 
	C295.636322,75.666359 298.608215,79.969559 305.386688,82.286598 
	C310.864532,84.159050 316.600769,85.273315 322.086273,87.126823 
	C323.622437,87.645874 325.708496,89.615433 325.678833,90.875740 
	C325.645203,92.304642 323.790375,94.293335 322.254211,94.979660 
	C315.671600,97.920662 310.064819,95.561333 306.158081,88.461029 
	C302.222412,89.065483 298.204163,89.682632 294.132507,90.307976 
	C296.662720,98.499344 301.026581,102.729271 309.619385,104.357964 
	C321.454346,106.601181 336.143768,104.841057 339.765839,90.077965 
	C341.773834,90.718941 343.781830,91.359917 346.132446,92.616440 
	C351.352295,102.959564 361.881073,107.278839 375.038239,104.596886 
	C380.281403,103.528122 384.824432,101.460579 387.912445,96.857628 
	C392.740723,89.660698 390.441498,80.449715 382.425781,77.297470 
	C375.966980,74.757492 369.070160,73.350296 362.479706,71.110832 
	C361.094177,70.640030 360.197388,68.730782 359.075378,67.484367 
	C360.293182,66.495857 361.375793,64.949249 362.752258,64.615852 
	C368.574738,63.205589 374.037689,63.459572 377.111542,69.717682 
	C380.997437,68.991158 384.555145,68.325996 388.302032,67.625465 
	C387.380890,62.348461 384.404633,58.821381 379.864838,57.060776 
	C372.006378,54.013134 363.887390,53.884480 355.982941,56.945591 
	C350.358643,59.123676 347.279694,63.514675 347.125885,69.623680 
	C346.983154,75.291595 350.145294,79.872406 356.174408,82.021095 
	C361.634521,83.966995 367.374939,85.119820 372.861877,87.001083 
	C374.581268,87.590599 375.879303,89.409134 377.370209,90.665108 
	C375.910889,92.228813 374.735382,94.539825 372.941010,95.221268 
	C366.625916,97.619522 362.859589,95.806755 357.317902,88.553101 
	C353.878052,88.978706 350.438232,89.404312 346.861725,89.151840 
	C344.734497,85.512505 341.680481,88.166237 338.767761,87.284874 
	C337.216644,84.447411 335.665527,81.609955 334.885315,78.578079 
	C333.785736,78.109535 332.686188,77.640991 330.845367,77.135399 
	C327.133240,76.000847 323.376007,74.993538 319.721313,73.697090 
	C315.816254,72.311844 312.007965,70.653778 308.906921,68.959946 
	C310.275208,67.395470 311.643494,65.830994 313.829071,64.064232 
	C317.320740,64.270760 321.329590,63.053604 322.933899,67.772133 
	C322.939972,67.962318 322.946075,68.152504 322.952179,68.342682 
	C323.128326,68.123413 323.304474,67.904137 324.299255,67.941139 
M99.500000,111.051178 
	C106.996513,111.038246 114.493233,111.055351 121.989464,111.002754 
	C127.831978,110.961761 129.107117,109.467911 128.325150,103.854584 
	C127.866257,100.560463 127.485825,97.255371 127.023117,93.961815 
	C124.593849,76.670380 122.117195,59.385517 119.733101,42.087883 
	C119.129532,37.708744 117.000664,35.610123 112.409515,35.908459 
	C108.641640,36.153297 104.845192,35.958366 101.225945,35.958366 
	C97.658539,23.320850 91.606621,17.415413 82.359245,17.160095 
	C72.822144,16.896780 66.450195,22.763559 62.182644,35.954025 
	C58.303146,35.954025 54.320461,35.996986 50.339138,35.941692 
	C46.515141,35.888584 44.513725,37.741928 43.982475,41.491737 
	C41.066875,62.071514 38.087711,82.642296 35.181633,103.223404 
	C34.297058,109.488022 35.677124,111.008904 42.025684,111.016617 
	C60.850441,111.039482 79.675224,111.040428 99.500000,111.051178 
M398.702148,82.885521 
	C400.196167,95.982216 408.309296,104.085243 420.833710,104.989540 
	C433.789398,105.924973 444.046600,98.855614 447.086090,86.896141 
	C450.296539,74.263977 445.016174,61.940979 434.077118,57.154400 
	C419.147156,50.621555 397.303833,57.993694 398.702148,82.885521 
M277.461761,83.671219 
	C280.903107,83.671219 284.344421,83.671219 288.772186,83.671219 
	C287.701050,78.064476 287.324371,73.038475 285.733521,68.431755 
	C282.850098,60.081924 276.399384,55.759426 267.670563,55.024673 
	C258.356201,54.240635 250.784424,57.641556 246.500381,66.024246 
	C241.695251,75.426567 241.660583,85.344048 246.711670,94.733780 
	C251.650360,103.914543 260.322968,105.818321 269.817261,104.895973 
	C278.315613,104.070374 284.147736,99.517746 287.322479,90.618446 
	C281.699585,91.097610 275.699463,85.215240 271.728790,93.627480 
	C271.259369,94.622055 269.200439,95.144669 267.795258,95.371513 
	C261.428833,96.399223 256.879517,91.750626 256.590179,83.674744 
	C263.222260,83.674744 269.846893,83.674744 277.461761,83.671219 
M178.470886,67.003464 
	C180.940781,63.536556 183.410675,60.069645 185.990417,56.448528 
	C172.346741,54.676933 172.350113,54.679218 165.172791,65.264648 
	C164.356125,66.469078 163.475693,67.630272 162.467560,69.029869 
	C160.053543,65.266869 157.916595,61.704655 155.515961,58.330013 
	C154.765259,57.274742 153.342148,56.128448 152.160172,56.051785 
	C147.931641,55.777534 143.674515,55.944386 138.615662,55.944386 
	C144.434235,64.183083 149.755386,71.717476 155.077621,79.253418 
	C149.361679,87.470497 143.806824,95.456001 138.246521,103.449348 
	C147.914047,105.817032 155.342163,103.944687 159.274597,94.210136 
	C159.939911,92.563179 161.239273,91.172363 162.530197,89.236588 
	C165.374878,93.540871 167.926132,97.570107 170.679047,101.456528 
	C171.436981,102.526558 172.754517,103.820465 173.888077,103.894287 
	C178.250992,104.178436 182.643402,104.009491 187.862747,104.009491 
	C181.587265,95.008553 175.916794,86.875381 170.210739,78.691147 
	C172.900040,74.891258 175.481079,71.244331 178.470886,67.003464 
M230.040649,71.519119 
	C232.384491,71.005287 234.728333,70.491455 237.139084,69.962952 
	C232.824539,58.223701 225.584396,53.913769 212.782455,55.050842 
	C202.349823,55.977474 194.626373,63.148808 193.157532,73.809784 
	C192.617401,77.730064 192.624039,81.832024 193.095993,85.765350 
	C194.482498,97.320305 203.103790,104.791969 214.845642,105.048096 
	C227.633469,105.327042 235.277237,99.605141 237.510986,87.648842 
	C233.496994,86.993439 229.496857,86.340302 225.361725,85.665115 
	C224.335281,91.151520 221.811432,94.613319 216.420151,94.711372 
	C212.244629,94.787300 208.132858,92.963631 207.475601,88.927887 
	C206.513840,83.022453 206.346573,76.728935 207.399567,70.881538 
	C207.820145,68.546021 212.142883,66.195091 215.134552,65.226891 
	C218.679855,64.079514 222.325546,65.776825 223.687134,69.507957 
	C224.892731,72.811676 226.958054,72.085838 230.040649,71.519119 
M342.475220,95.369827 
	C342.529449,95.158806 342.583679,94.947777 342.637909,94.736763 
	C342.504730,94.872330 342.371521,95.007896 342.475220,95.369827 
M331.481628,72.592659 
	C331.481628,72.592659 331.411896,72.477715 331.481628,72.592659 
z"/>
<path fill="#2C9728" opacity="1.000000" stroke="none" 
	d="
M99.000000,111.050560 
	C79.675224,111.040428 60.850441,111.039482 42.025684,111.016617 
	C35.677124,111.008904 34.297058,109.488022 35.181633,103.223404 
	C38.087711,82.642296 41.066875,62.071514 43.982475,41.491737 
	C44.513725,37.741928 46.515141,35.888584 50.339138,35.941692 
	C54.320461,35.996986 58.303146,35.954025 62.182644,35.954025 
	C66.450195,22.763559 72.822144,16.896780 82.359245,17.160095 
	C91.606621,17.415413 97.658539,23.320850 101.225945,35.958366 
	C104.845192,35.958366 108.641640,36.153297 112.409515,35.908459 
	C117.000664,35.610123 119.129532,37.708744 119.733101,42.087883 
	C122.117195,59.385517 124.593849,76.670380 127.023117,93.961815 
	C127.485825,97.255371 127.866257,100.560463 128.325150,103.854584 
	C129.107117,109.467911 127.831978,110.961761 121.989464,111.002754 
	C114.493233,111.055351 106.996513,111.038246 99.000000,111.050560 
M72.766830,50.214466 
	C66.892281,65.301331 61.017742,80.388199 54.940392,95.995903 
	C58.032242,95.995903 60.449261,96.399742 62.638710,95.867485 
	C64.374626,95.445488 66.986923,94.085747 67.223183,92.782257 
	C68.650215,84.908966 73.289383,82.646370 80.577034,84.051743 
	C81.379059,84.206413 82.236832,84.071266 83.068748,84.071709 
	C91.187546,84.076004 91.071907,84.125229 94.246414,91.592842 
	C94.968933,93.292458 96.579163,95.379395 98.161667,95.778748 
	C100.887131,96.466522 103.911659,95.969154 107.532135,95.969154 
	C100.615303,78.642776 94.055016,62.166599 87.419724,45.720676 
	C87.102417,44.934212 86.232590,44.109608 85.432976,43.820858 
	C79.962570,41.845440 75.220291,44.057812 72.766830,50.214466 
M79.644188,36.009651 
	C83.374672,36.009651 87.105156,36.009651 90.900192,36.009651 
	C90.099869,29.731581 86.911407,26.669441 81.865654,26.671349 
	C76.631668,26.673326 73.293335,29.952148 72.765038,36.009659 
	C74.770927,36.009659 76.741791,36.009659 79.644188,36.009651 
z"/>
<path fill="#080808" opacity="1.000000" stroke="none" 
	d="
M398.648254,82.466248 
	C397.303833,57.993694 419.147156,50.621555 434.077118,57.154400 
	C445.016174,61.940979 450.296539,74.263977 447.086090,86.896141 
	C444.046600,98.855614 433.789398,105.924973 420.833710,104.989540 
	C408.309296,104.085243 400.196167,95.982216 398.648254,82.466248 
M424.196625,65.271965 
	C418.317657,65.191521 414.425323,68.049889 412.480408,73.481155 
	C410.177704,79.911560 411.923615,88.471512 416.097076,92.057243 
	C420.238678,95.615654 426.217743,95.742355 430.221680,92.148697 
	C435.088257,87.780777 435.537781,82.016586 434.601318,76.085480 
	C433.728271,70.556137 430.762726,66.622864 424.196625,65.271965 
z"/>
<path fill="#0A0A0A" opacity="1.000000" stroke="none" 
	d="
M276.966614,83.672981 
	C269.846893,83.674744 263.222260,83.674744 256.590179,83.674744 
	C256.879517,91.750626 261.428833,96.399223 267.795258,95.371513 
	C269.200439,95.144669 271.259369,94.622055 271.728790,93.627480 
	C275.699463,85.215240 281.699585,91.097610 287.322479,90.618446 
	C284.147736,99.517746 278.315613,104.070374 269.817261,104.895973 
	C260.322968,105.818321 251.650360,103.914543 246.711670,94.733780 
	C241.660583,85.344048 241.695251,75.426567 246.500381,66.024246 
	C250.784424,57.641556 258.356201,54.240635 267.670563,55.024673 
	C276.399384,55.759426 282.850098,60.081924 285.733521,68.431755 
	C287.324371,73.038475 287.701050,78.064476 288.772186,83.671219 
	C284.344421,83.671219 280.903107,83.671219 276.966614,83.672981 
M259.100067,67.681236 
	C258.066284,70.151672 257.032501,72.622108 255.769821,75.639580 
	C262.917999,75.639580 268.948364,75.639580 275.083496,75.639580 
	C275.299225,71.253784 274.033630,67.830864 270.241669,65.837517 
	C266.508453,63.875034 262.911987,64.378845 259.100067,67.681236 
z"/>
<path fill="#080808" opacity="1.000000" stroke="none" 
	d="
M346.998383,89.829918 
	C350.438232,89.404312 353.878052,88.978706 357.317688,88.551491 
	C362.859589,95.806755 366.625916,97.619522 372.941010,95.221268 
	C374.735382,94.539825 375.910889,92.228813 377.370209,90.665108 
	C375.879303,89.409134 374.581268,87.590599 372.861877,87.001083 
	C367.374939,85.119820 361.634521,83.966995 356.174408,82.021095 
	C350.145294,79.872406 346.983154,75.291595 347.125885,69.623680 
	C347.279694,63.514675 350.358643,59.123676 355.982941,56.945591 
	C363.887390,53.884480 372.006378,54.013134 379.864838,57.060776 
	C384.404633,58.821381 387.380890,62.348461 388.302032,67.625465 
	C384.555145,68.325996 380.997437,68.991158 377.111542,69.717682 
	C374.037689,63.459572 368.574738,63.205589 362.752258,64.615852 
	C361.375793,64.949249 360.293182,66.495857 359.075378,67.484360 
	C360.197388,68.730782 361.094177,70.640030 362.479706,71.110832 
	C369.070160,73.350296 375.966980,74.757492 382.425781,77.297470 
	C390.441498,80.449715 392.740723,89.660698 387.912445,96.857628 
	C384.824432,101.460579 380.281403,103.528122 375.038239,104.596886 
	C361.881073,107.278839 351.352295,102.959564 345.989532,91.956619 
	C346.230530,90.807838 346.614441,90.318871 346.998383,89.829918 
z"/>
<path fill="#080808" opacity="1.000000" stroke="none" 
	d="
M334.114441,78.772491 
	C335.665527,81.609955 337.216644,84.447411 338.820496,87.972603 
	C338.935608,89.106827 338.997925,89.553329 339.060242,89.999825 
	C336.143768,104.841057 321.454346,106.601181 309.619385,104.357964 
	C301.026581,102.729271 296.662720,98.499344 294.132507,90.307976 
	C298.204163,89.682632 302.222412,89.065483 306.158081,88.461029 
	C310.064819,95.561333 315.671600,97.920662 322.254211,94.979660 
	C323.790375,94.293335 325.645203,92.304642 325.678833,90.875740 
	C325.708496,89.615433 323.622437,87.645874 322.086273,87.126823 
	C316.600769,85.273315 310.864532,84.159050 305.386688,82.286598 
	C298.608215,79.969559 295.636322,75.666359 295.740631,69.391037 
	C295.843445,63.201992 299.547485,57.455273 306.077911,56.450207 
	C312.814667,55.413399 319.943665,55.519279 326.704163,56.492634 
	C332.013733,57.257084 335.379639,61.631626 337.076080,67.866150 
	C332.595337,67.165169 328.723694,71.408295 323.820435,67.787361 
	C323.341644,67.633583 323.281708,67.498108 323.281708,67.498108 
	C321.329590,63.053604 317.320740,64.270760 313.061218,64.116882 
	C309.964905,65.023613 306.688568,65.084930 308.157440,69.114807 
	C312.007965,70.653778 315.816254,72.311844 319.721313,73.697090 
	C323.376007,74.993538 327.133240,76.000847 331.359436,77.400642 
	C332.620453,78.034752 333.367462,78.403618 334.114441,78.772491 
z"/>
<path fill="#070707" opacity="1.000000" stroke="none" 
	d="
M178.266510,67.300438 
	C175.481079,71.244331 172.900040,74.891258 170.210739,78.691147 
	C175.916794,86.875381 181.587265,95.008553 187.862747,104.009491 
	C182.643402,104.009491 178.250992,104.178436 173.888077,103.894287 
	C172.754517,103.820465 171.436981,102.526558 170.679047,101.456528 
	C167.926132,97.570107 165.374878,93.540871 162.530197,89.236588 
	C161.239273,91.172363 159.939911,92.563179 159.274597,94.210136 
	C155.342163,103.944687 147.914047,105.817032 138.246521,103.449348 
	C143.806824,95.456001 149.361679,87.470497 155.077621,79.253418 
	C149.755386,71.717476 144.434235,64.183083 138.615662,55.944386 
	C143.674515,55.944386 147.931641,55.777534 152.160172,56.051785 
	C153.342148,56.128448 154.765259,57.274742 155.515961,58.330013 
	C157.916595,61.704655 160.053543,65.266869 162.467560,69.029869 
	C163.475693,67.630272 164.356125,66.469078 165.172791,65.264648 
	C172.350113,54.679218 172.346741,54.676933 185.990417,56.448528 
	C183.410675,60.069645 180.940781,63.536556 178.266510,67.300438 
z"/>
<path fill="#080808" opacity="1.000000" stroke="none" 
	d="
M229.635284,71.629242 
	C226.958054,72.085838 224.892731,72.811676 223.687134,69.507957 
	C222.325546,65.776825 218.679855,64.079514 215.134552,65.226891 
	C212.142883,66.195091 207.820145,68.546021 207.399567,70.881538 
	C206.346573,76.728935 206.513840,83.022453 207.475601,88.927887 
	C208.132858,92.963631 212.244629,94.787300 216.420151,94.711372 
	C221.811432,94.613319 224.335281,91.151520 225.361725,85.665115 
	C229.496857,86.340302 233.496994,86.993439 237.510986,87.648842 
	C235.277237,99.605141 227.633469,105.327042 214.845642,105.048096 
	C203.103790,104.791969 194.482498,97.320305 193.095993,85.765350 
	C192.624039,81.832024 192.617401,77.730064 193.157532,73.809784 
	C194.626373,63.148808 202.349823,55.977474 212.782455,55.050842 
	C225.584396,53.913769 232.824539,58.223701 237.139084,69.962952 
	C234.728333,70.491455 232.384491,71.005287 229.635284,71.629242 
z"/>
<path fill="#FEFEFE" opacity="1.000000" stroke="none" 
	d="
M339.413025,90.038895 
	C338.997925,89.553329 338.935608,89.106827 338.957520,88.330276 
	C341.680481,88.166237 344.734497,85.512505 346.930054,89.490875 
	C346.614441,90.318871 346.230530,90.807838 345.818237,91.648849 
	C343.781830,91.359917 341.773834,90.718941 339.413025,90.038895 
z"/>
<path fill="#F5F5F5" opacity="1.000000" stroke="none" 
	d="
M308.532166,69.037376 
	C306.688568,65.084930 309.964905,65.023613 312.652557,64.218018 
	C311.643494,65.830994 310.275208,67.395470 308.532166,69.037376 
z"/>
<path fill="#F6F6F6" opacity="1.000000" stroke="none" 
	d="
M334.499878,78.675278 
	C333.367462,78.403618 332.620453,78.034752 331.730042,77.419167 
	C332.686188,77.640991 333.785736,78.109535 334.499878,78.675278 
z"/>
<path fill="#F7F7F7" opacity="1.000000" stroke="none" 
	d="
M342.356781,95.256645 
	C342.371521,95.007896 342.504730,94.872330 342.637909,94.736755 
	C342.583679,94.947777 342.529449,95.158806 342.356781,95.256645 
z"/>
<path fill="#F2F2F2" opacity="1.000000" stroke="none" 
	d="
M331.446777,72.535187 
	C331.411896,72.477715 331.481628,72.592659 331.446777,72.535187 
z"/>
<path fill="#F5F5F5" opacity="1.000000" stroke="none" 
	d="
M323.411133,67.659225 
	C323.304474,67.904137 323.128326,68.123413 322.952179,68.342682 
	C322.946075,68.152504 322.939972,67.962318 323.107788,67.635117 
	C323.281708,67.498108 323.341644,67.633583 323.411133,67.659225 
z"/>
<path fill="#F0FBF0" opacity="1.000000" stroke="none" 
	d="
M72.891235,49.844791 
	C75.220291,44.057812 79.962570,41.845440 85.432976,43.820858 
	C86.232590,44.109608 87.102417,44.934212 87.419724,45.720676 
	C94.055016,62.166599 100.615303,78.642776 107.532135,95.969154 
	C103.911659,95.969154 100.887131,96.466522 98.161667,95.778748 
	C96.579163,95.379395 94.968933,93.292458 94.246414,91.592842 
	C91.071907,84.125229 91.187546,84.076004 83.068748,84.071709 
	C82.236832,84.071266 81.379059,84.206413 80.577034,84.051743 
	C73.289383,82.646370 68.650215,84.908966 67.223183,92.782257 
	C66.986923,94.085747 64.374626,95.445488 62.638710,95.867485 
	C60.449261,96.399742 58.032242,95.995903 54.940392,95.995903 
	C61.017742,80.388199 66.892281,65.301331 72.891235,49.844791 
M75.406693,70.924614 
	C75.059769,72.168999 74.712845,73.413383 74.347870,74.722504 
	C78.933228,74.722504 83.241943,74.722504 88.068222,74.722504 
	C85.629318,68.476662 83.453133,62.903633 80.773407,56.041069 
	C78.720802,61.818737 77.228203,66.020096 75.406693,70.924614 
z"/>
<path fill="#E9FCE8" opacity="1.000000" stroke="none" 
	d="
M79.178421,36.009655 
	C76.741791,36.009659 74.770927,36.009659 72.765038,36.009659 
	C73.293335,29.952148 76.631668,26.673326 81.865654,26.671349 
	C86.911407,26.669441 90.099869,29.731581 90.900192,36.009651 
	C87.105156,36.009651 83.374672,36.009651 79.178421,36.009655 
z"/>
<path fill="#F8F8F8" opacity="1.000000" stroke="none" 
	d="
M424.579315,65.332222 
	C430.762726,66.622864 433.728271,70.556137 434.601318,76.085480 
	C435.537781,82.016586 435.088257,87.780777 430.221680,92.148697 
	C426.217743,95.742355 420.238678,95.615654 416.097076,92.057243 
	C411.923615,88.471512 410.177704,79.911560 412.480408,73.481155 
	C414.425323,68.049889 418.317657,65.191521 424.579315,65.332222 
z"/>
<path fill="#F3F3F3" opacity="1.000000" stroke="none" 
	d="
M259.378113,67.388412 
	C262.911987,64.378845 266.508453,63.875034 270.241669,65.837517 
	C274.033630,67.830864 275.299225,71.253784 275.083496,75.639580 
	C268.948364,75.639580 262.917999,75.639580 255.769821,75.639580 
	C257.032501,72.622108 258.066284,70.151672 259.378113,67.388412 
z"/>
<path fill="#429341" opacity="1.000000" stroke="none" 
	d="
M75.571144,70.573036 
	C77.228203,66.020096 78.720802,61.818737 80.773407,56.041069 
	C83.453133,62.903633 85.629318,68.476662 88.068222,74.722504 
	C83.241943,74.722504 78.933228,74.722504 74.347870,74.722504 
	C74.712845,73.413383 75.059769,72.168999 75.571144,70.573036 
M77.781662,70.470062 
	C78.382568,71.631516 78.925705,73.718132 79.596512,73.760010 
	C80.953636,73.844749 82.379997,72.820496 83.777809,72.253540 
	C82.838585,70.636658 81.899361,69.019768 80.884727,67.273071 
	C79.519493,68.535835 78.804901,69.196785 77.781662,70.470062 
z"/>
<path fill="#229922" opacity="1.000000" stroke="none" 
	d="
M77.935989,70.163895 
	C78.804901,69.196785 79.519493,68.535835 80.884727,67.273071 
	C81.899361,69.019768 82.838585,70.636658 83.777809,72.253540 
	C82.379997,72.820496 80.953636,73.844749 79.596512,73.760010 
	C78.925705,73.718132 78.382568,71.631516 77.935989,70.163895 
z"/>
</svg>